<?xml version="1.0" encoding="UTF-8" standalone="no"?>
<!DOCTYPE svg PUBLIC "-//W3C//DTD SVG 1.1//EN"
 "http://www.w3.org/Graphics/SVG/1.1/DTD/svg11.dtd">
<!-- Generated by graphviz version 13.0.1 (20250615.1724)
 -->
<!-- Title: BGAgent System &#45; Data Flow Diagram Pages: 1 -->
<svg width="1488pt" height="1809pt"
 viewBox="0.00 0.00 1488.00 1809.00" xmlns="http://www.w3.org/2000/svg" xmlns:xlink="http://www.w3.org/1999/xlink">
<g id="graph0" class="graph" transform="scale(1 1) rotate(0) translate(144 1665.15)">
<title>BGAgent System &#45; Data Flow Diagram</title>
<polygon fill="white" stroke="none" points="-144,144 -144,-1665.15 1344.35,-1665.15 1344.35,144 -144,144"/>
<text xml:space="preserve" text-anchor="middle" x="600.18" y="-5.5" font-family="Sans-Serif" font-size="15.00" fill="#2d3436">BGAgent System &#45; Data Flow Diagram</text>
<g id="clust1" class="cluster">
<title>cluster_API Gateway (WAFv2) &#45; Perimeter</title>
<polygon fill="#f8fafc" stroke="#aeb6be" stroke-width="2" stroke-dasharray="5,2" points="278.3,-190.15 278.3,-414.15 475.05,-414.15 475.05,-190.15 278.3,-190.15"/>
<text xml:space="preserve" text-anchor="middle" x="376.68" y="-398.75" font-family="Sans-Serif" font-size="12.00" fill="#475569">API Gateway (WAFv2) &#45; Perimeter</text>
</g>
<g id="clust2" class="cluster">
<title>cluster_AWS Account (Lambda) &#45; Trusted Compute</title>
<polygon fill="#f8fafc" stroke="#aeb6be" stroke-width="2" stroke-dasharray="5,2" points="642.55,-304.15 642.55,-758.15 886.55,-758.15 886.55,-304.15 642.55,-304.15"/>
<text xml:space="preserve" text-anchor="middle" x="764.55" y="-742.75" font-family="Sans-Serif" font-size="12.00" fill="#475569">AWS Account (Lambda) &#45; Trusted Compute</text>
</g>
<g id="clust3" class="cluster">
<title>cluster_Data Stores</title>
<polygon fill="#f8fafc" stroke="#aeb6be" stroke-width="2" stroke-dasharray="5,2" points="1075.55,-511.15 1075.55,-1368.15 1192.35,-1368.15 1192.35,-511.15 1075.55,-511.15"/>
<text xml:space="preserve" text-anchor="middle" x="1115.05" y="-1352.75" font-family="Sans-Serif" font-size="12.00" fill="#475569">Data Stores</text>
</g>
<g id="clust4" class="cluster">
<title>cluster_VPC Private Subnets (MicroVM) &#45; Isolated Compute</title>
<polygon fill="#f8fafc" stroke="#aeb6be" stroke-width="2" stroke-dasharray="5,2" points="684.05,-1376.15 684.05,-1513.15 1192.35,-1513.15 1192.35,-1376.15 684.05,-1376.15"/>
<text xml:space="preserve" text-anchor="middle" x="829.3" y="-1497.75" font-family="Sans-Serif" font-size="12.00" fill="#475569">VPC Private Subnets (MicroVM) &#45; Isolated Compute</text>
</g>
<!-- 133c1726fffd43468e9412be769fbca2 -->
<g id="node1" class="node">
<title>133c1726fffd43468e9412be769fbca2</title>
<text xml:space="preserve" text-anchor="middle" x="50.4" y="-353.9" font-family="Sans-Serif" font-size="13.00" fill="#2d3436">Developer/Operator</text>
</g>
<!-- 64aa8ecd8edb4d16a2dd723386ca8813 -->
<g id="node9" class="node">
<title>64aa8ecd8edb4d16a2dd723386ca8813</title>
<ellipse fill="none" stroke="black" cx="376.18" cy="-349.15" rx="72" ry="36"/>
<text xml:space="preserve" text-anchor="middle" x="376.18" y="-350.3" font-family="Sans-Serif" font-size="13.00" fill="#2d3436">API Gateway +</text>
<text xml:space="preserve" text-anchor="middle" x="376.18" y="-336.8" font-family="Sans-Serif" font-size="13.00" fill="#2d3436">Lambda Handlers</text>
</g>
<!-- 133c1726fffd43468e9412be769fbca2&#45;&gt;64aa8ecd8edb4d16a2dd723386ca8813 -->
<g id="edge1" class="edge">
<title>133c1726fffd43468e9412be769fbca2&#45;&gt;64aa8ecd8edb4d16a2dd723386ca8813</title>
<path fill="none" stroke="#7b8894" d="M100.59,-374.35C100.59,-374.35 312.26,-374.35 312.26,-374.35"/>
<polygon fill="#7b8894" stroke="#7b8894" points="312.26,-377.85 322.26,-374.35 312.26,-370.85 312.26,-377.85"/>
<text xml:space="preserve" text-anchor="middle" x="199.05" y="-437.8" font-family="Sans-Serif" font-size="13.00" fill="#2d3436">DF&#45;01: Task submission</text>
<text xml:space="preserve" text-anchor="middle" x="199.05" y="-424.3" font-family="Sans-Serif" font-size="13.00" fill="#2d3436">(JWT, repo URL)</text>
</g>
<!-- 133c1726fffd43468e9412be769fbca2&#45;&gt;64aa8ecd8edb4d16a2dd723386ca8813 -->
<g id="edge13" class="edge">
<title>133c1726fffd43468e9412be769fbca2&#45;&gt;64aa8ecd8edb4d16a2dd723386ca8813</title>
<path fill="none" stroke="#7b8894" d="M100.59,-363.55C100.59,-363.55 298.33,-363.55 298.33,-363.55"/>
<polygon fill="#7b8894" stroke="#7b8894" points="298.33,-367.05 308.33,-363.55 298.33,-360.05 298.33,-367.05"/>
<text xml:space="preserve" text-anchor="middle" x="199.05" y="-362.8" font-family="Sans-Serif" font-size="13.00" fill="#2d3436">DF&#45;12: HITL approval</text>
<text xml:space="preserve" text-anchor="middle" x="199.05" y="-349.3" font-family="Sans-Serif" font-size="13.00" fill="#2d3436">(decision, scope)</text>
</g>
<!-- f0afd95f7b6e4b55a8b1e7dc724b515f -->
<g id="node2" class="node">
<title>f0afd95f7b6e4b55a8b1e7dc724b515f</title>
<text xml:space="preserve" text-anchor="middle" x="50.4" y="-168.9" font-family="Sans-Serif" font-size="13.00" fill="#2d3436">Slack User</text>
</g>
<!-- 12cdbabcd8df4216918fa4d938571fcc -->
<g id="node10" class="node">
<title>12cdbabcd8df4216918fa4d938571fcc</title>
<ellipse fill="none" stroke="black" cx="376.18" cy="-234.15" rx="72" ry="36"/>
<text xml:space="preserve" text-anchor="middle" x="376.18" y="-235.3" font-family="Sans-Serif" font-size="13.00" fill="#2d3436">Slack/Linear</text>
<text xml:space="preserve" text-anchor="middle" x="376.18" y="-221.8" font-family="Sans-Serif" font-size="13.00" fill="#2d3436">Integration Lambdas</text>
</g>
<!-- f0afd95f7b6e4b55a8b1e7dc724b515f&#45;&gt;12cdbabcd8df4216918fa4d938571fcc -->
<g id="edge3" class="edge">
<title>f0afd95f7b6e4b55a8b1e7dc724b515f&#45;&gt;12cdbabcd8df4216918fa4d938571fcc</title>
<path fill="none" stroke="#7b8894" d="M100.59,-234.15C100.59,-234.15 292.34,-234.15 292.34,-234.15"/>
<polygon fill="#7b8894" stroke="#7b8894" points="292.34,-237.65 302.34,-234.15 292.34,-230.65 292.34,-237.65"/>
<text xml:space="preserve" text-anchor="middle" x="199.05" y="-250.8" font-family="Sans-Serif" font-size="13.00" fill="#2d3436">DF&#45;03: Slash command</text>
<text xml:space="preserve" text-anchor="middle" x="199.05" y="-237.3" font-family="Sans-Serif" font-size="13.00" fill="#2d3436">(signing secret)</text>
</g>
<!-- 7440dec0f21c40c081ddafd0c0f2a82d -->
<g id="node3" class="node">
<title>7440dec0f21c40c081ddafd0c0f2a82d</title>
<text xml:space="preserve" text-anchor="middle" x="50.4" y="-533.9" font-family="Sans-Serif" font-size="13.00" fill="#2d3436">Linear User</text>
</g>
<!-- 01aa4374c4d94696921c075203b06625 -->
<g id="node4" class="node">
<title>01aa4374c4d94696921c075203b06625</title>
<path fill="none" stroke="black" d="M1172.35,-331.55C1172.35,-331.55 1095.55,-331.55 1095.55,-331.55 1089.55,-331.55 1083.55,-325.55 1083.55,-319.55 1083.55,-319.55 1083.55,-242.75 1083.55,-242.75 1083.55,-236.75 1089.55,-230.75 1095.55,-230.75 1095.55,-230.75 1172.35,-230.75 1172.35,-230.75 1178.35,-230.75 1184.35,-236.75 1184.35,-242.75 1184.35,-242.75 1184.35,-319.55 1184.35,-319.55 1184.35,-325.55 1178.35,-331.55 1172.35,-331.55"/>
<text xml:space="preserve" text-anchor="middle" x="1133.95" y="-275.55" font-family="Sans-Serif" font-size="13.00" fill="#2d3436">GitHub</text>
</g>
<!-- 01aa4374c4d94696921c075203b06625&#45;&gt;64aa8ecd8edb4d16a2dd723386ca8813 -->
<g id="edge2" class="edge">
<title>01aa4374c4d94696921c075203b06625&#45;&gt;64aa8ecd8edb4d16a2dd723386ca8813</title>
<path fill="none" stroke="#7b8894" d="M1083.07,-308.35C913.2,-308.35 376.35,-308.35 376.35,-308.35 376.35,-308.35 376.35,-308.79 376.35,-308.79"/>
<polygon fill="#7b8894" stroke="#7b8894" points="372.85,-301.2 376.35,-311.2 379.85,-301.2 372.85,-301.2"/>
<text xml:space="preserve" text-anchor="middle" x="764.05" y="-150.8" font-family="Sans-Serif" font-size="13.00" fill="#2d3436">DF&#45;02: Webhook task</text>
<text xml:space="preserve" text-anchor="middle" x="764.05" y="-137.3" font-family="Sans-Serif" font-size="13.00" fill="#2d3436">(HMAC signature)</text>
</g>
<!-- ddb2cbd2730a48bcb78dfa0e5f90fa23 -->
<g id="node5" class="node">
<title>ddb2cbd2730a48bcb78dfa0e5f90fa23</title>
<path fill="none" stroke="black" d="M1172.35,-475.55C1172.35,-475.55 1095.55,-475.55 1095.55,-475.55 1089.55,-475.55 1083.55,-469.55 1083.55,-463.55 1083.55,-463.55 1083.55,-386.75 1083.55,-386.75 1083.55,-380.75 1089.55,-374.75 1095.55,-374.75 1095.55,-374.75 1172.35,-374.75 1172.35,-374.75 1178.35,-374.75 1184.35,-380.75 1184.35,-386.75 1184.35,-386.75 1184.35,-463.55 1184.35,-463.55 1184.35,-469.55 1178.35,-475.55 1172.35,-475.55"/>
<text xml:space="preserve" text-anchor="middle" x="1133.95" y="-419.55" font-family="Sans-Serif" font-size="13.00" fill="#2d3436">Amazon Bedrock</text>
</g>
<!-- be01febf3fe6424e904addc859ae41e5 -->
<g id="node6" class="node">
<title>be01febf3fe6424e904addc859ae41e5</title>
<path fill="none" stroke="black" d="M1172.35,-187.55C1172.35,-187.55 1095.55,-187.55 1095.55,-187.55 1089.55,-187.55 1083.55,-181.55 1083.55,-175.55 1083.55,-175.55 1083.55,-98.75 1083.55,-98.75 1083.55,-92.75 1089.55,-86.75 1095.55,-86.75 1095.55,-86.75 1172.35,-86.75 1172.35,-86.75 1178.35,-86.75 1184.35,-92.75 1184.35,-98.75 1184.35,-98.75 1184.35,-175.55 1184.35,-175.55 1184.35,-181.55 1178.35,-187.55 1172.35,-187.55"/>
<text xml:space="preserve" text-anchor="middle" x="1133.95" y="-131.55" font-family="Sans-Serif" font-size="13.00" fill="#2d3436">Slack API</text>
</g>
<!-- 514e19eb178540178dc16f2780eb4f13 -->
<g id="node7" class="node">
<title>514e19eb178540178dc16f2780eb4f13</title>
<path fill="none" stroke="black" d="M88.8,-124.55C88.8,-124.55 12,-124.55 12,-124.55 6,-124.55 0,-118.55 0,-112.55 0,-112.55 0,-35.75 0,-35.75 0,-29.75 6,-23.75 12,-23.75 12,-23.75 88.8,-23.75 88.8,-23.75 94.8,-23.75 100.8,-29.75 100.8,-35.75 100.8,-35.75 100.8,-112.55 100.8,-112.55 100.8,-118.55 94.8,-124.55 88.8,-124.55"/>
<text xml:space="preserve" text-anchor="middle" x="50.4" y="-68.55" font-family="Sans-Serif" font-size="13.00" fill="#2d3436">Linear API</text>
</g>
<!-- 514e19eb178540178dc16f2780eb4f13&#45;&gt;12cdbabcd8df4216918fa4d938571fcc -->
<g id="edge4" class="edge">
<title>514e19eb178540178dc16f2780eb4f13&#45;&gt;12cdbabcd8df4216918fa4d938571fcc</title>
<path fill="none" stroke="#7b8894" d="M100.97,-105.65C192.53,-105.65 376.35,-105.65 376.35,-105.65 376.35,-105.65 376.35,-186.16 376.35,-186.16"/>
<polygon fill="#7b8894" stroke="#7b8894" points="372.85,-186.16 376.35,-196.16 379.85,-186.16 372.85,-186.16"/>
<text xml:space="preserve" text-anchor="middle" x="199.05" y="-88.8" font-family="Sans-Serif" font-size="13.00" fill="#2d3436">DF&#45;04: Label trigger</text>
<text xml:space="preserve" text-anchor="middle" x="199.05" y="-75.3" font-family="Sans-Serif" font-size="13.00" fill="#2d3436">(webhook signature)</text>
</g>
<!-- 7e263096e59e416e9c71b127a7ac7aac -->
<g id="node8" class="node">
<title>7e263096e59e416e9c71b127a7ac7aac</title>
<path fill="none" stroke="black" d="M88.8,-813.55C88.8,-813.55 12,-813.55 12,-813.55 6,-813.55 0,-807.55 0,-801.55 0,-801.55 0,-724.75 0,-724.75 0,-718.75 6,-712.75 12,-712.75 12,-712.75 88.8,-712.75 88.8,-712.75 94.8,-712.75 100.8,-718.75 100.8,-724.75 100.8,-724.75 100.8,-801.55 100.8,-801.55 100.8,-807.55 94.8,-813.55 88.8,-813.55"/>
<text xml:space="preserve" text-anchor="middle" x="50.4" y="-757.55" font-family="Sans-Serif" font-size="13.00" fill="#2d3436">Package Registries</text>
</g>
<!-- 8847ce50a1cf43a58cdd87fbec74b1fa -->
<g id="node11" class="node">
<title>8847ce50a1cf43a58cdd87fbec74b1fa</title>
<ellipse fill="none" stroke="black" cx="764.05" cy="-578.15" rx="72" ry="36"/>
<text xml:space="preserve" text-anchor="middle" x="764.05" y="-572.55" font-family="Sans-Serif" font-size="13.00" fill="#2d3436">Task Orchestrator</text>
</g>
<!-- 64aa8ecd8edb4d16a2dd723386ca8813&#45;&gt;8847ce50a1cf43a58cdd87fbec74b1fa -->
<g id="edge17" class="edge">
<title>64aa8ecd8edb4d16a2dd723386ca8813&#45;&gt;8847ce50a1cf43a58cdd87fbec74b1fa</title>
<path fill="none" stroke="#7b8894" d="M376.35,-385.49C376.35,-452.82 376.35,-590.15 376.35,-590.15 376.35,-590.15 684.12,-590.15 684.12,-590.15"/>
<polygon fill="#7b8894" stroke="#7b8894" points="684.12,-593.65 694.12,-590.15 684.12,-586.65 684.12,-593.65"/>
<text xml:space="preserve" text-anchor="middle" x="558.8" y="-379.3" font-family="Sans-Serif" font-size="13.00" fill="#2d3436">Task dispatch</text>
</g>
<!-- 8847ce50a1cf43a58cdd87fbec74b1fa&#45;&gt;01aa4374c4d94696921c075203b06625 -->
<g id="edge14" class="edge">
<title>8847ce50a1cf43a58cdd87fbec74b1fa&#45;&gt;01aa4374c4d94696921c075203b06625</title>
<path fill="none" stroke="#7b8894" d="M822.34,-556.55C845.77,-556.55 867.35,-556.55 867.35,-556.55 867.35,-556.55 867.35,-321.85 867.35,-321.85 867.35,-321.85 1071.66,-321.85 1071.66,-321.85"/>
<polygon fill="#7b8894" stroke="#7b8894" points="1071.66,-325.35 1081.66,-321.85 1071.66,-318.35 1071.66,-325.35"/>
<text xml:space="preserve" text-anchor="middle" x="975.55" y="-370.8" font-family="Sans-Serif" font-size="13.00" fill="#2d3436">DF&#45;13: Fetch context</text>
<text xml:space="preserve" text-anchor="middle" x="975.55" y="-357.3" font-family="Sans-Serif" font-size="13.00" fill="#2d3436">(issues, PRs, diffs)</text>
</g>
<!-- 8847ce50a1cf43a58cdd87fbec74b1fa&#45;&gt;ddb2cbd2730a48bcb78dfa0e5f90fa23 -->
<g id="edge8" class="edge">
<title>8847ce50a1cf43a58cdd87fbec74b1fa&#45;&gt;ddb2cbd2730a48bcb78dfa0e5f90fa23</title>
<path fill="none" stroke="#7b8894" d="M835.03,-570.95C901.4,-570.95 990.35,-570.95 990.35,-570.95 990.35,-570.95 990.35,-443.28 990.35,-443.28 990.35,-443.28 1071.81,-443.28 1071.81,-443.28"/>
<polygon fill="#7b8894" stroke="#7b8894" points="1071.81,-446.78 1081.81,-443.28 1071.81,-439.78 1071.81,-446.78"/>
<text xml:space="preserve" text-anchor="middle" x="975.55" y="-445.8" font-family="Sans-Serif" font-size="13.00" fill="#2d3436">DF&#45;08: Guardrail screening</text>
<text xml:space="preserve" text-anchor="middle" x="975.55" y="-432.3" font-family="Sans-Serif" font-size="13.00" fill="#2d3436">(user prompt, PR content)</text>
</g>
<!-- eb191e48441246de960c483a9a6bbd35 -->
<g id="node15" class="node">
<title>eb191e48441246de960c483a9a6bbd35</title>
<path fill="none" stroke="black" d="M1184.35,-898.39C1184.35,-903.44 1161.76,-907.55 1133.95,-907.55 1106.14,-907.55 1083.55,-903.44 1083.55,-898.39 1083.55,-898.39 1083.55,-815.91 1083.55,-815.91 1083.55,-810.86 1106.14,-806.75 1133.95,-806.75 1161.76,-806.75 1184.35,-810.86 1184.35,-815.91 1184.35,-815.91 1184.35,-898.39 1184.35,-898.39"/>
<path fill="none" stroke="black" d="M1184.35,-898.39C1184.35,-893.33 1161.76,-889.22 1133.95,-889.22 1106.14,-889.22 1083.55,-893.33 1083.55,-898.39"/>
<text xml:space="preserve" text-anchor="middle" x="1133.95" y="-858.3" font-family="Sans-Serif" font-size="13.00" fill="#2d3436">TaskTable</text>
<text xml:space="preserve" text-anchor="middle" x="1133.95" y="-844.8" font-family="Sans-Serif" font-size="13.00" fill="#2d3436">(DynamoDB)</text>
</g>
<!-- 8847ce50a1cf43a58cdd87fbec74b1fa&#45;&gt;eb191e48441246de960c483a9a6bbd35 -->
<g id="edge19" class="edge">
<title>8847ce50a1cf43a58cdd87fbec74b1fa&#45;&gt;eb191e48441246de960c483a9a6bbd35</title>
<path fill="none" stroke="#7b8894" d="M822.33,-599.75C869.92,-599.75 929.35,-599.75 929.35,-599.75 929.35,-599.75 929.35,-844.88 929.35,-844.88 929.35,-844.88 1071.6,-844.88 1071.6,-844.88"/>
<polygon fill="#7b8894" stroke="#7b8894" points="1071.6,-848.38 1081.6,-844.88 1071.6,-841.38 1071.6,-848.38"/>
<text xml:space="preserve" text-anchor="middle" x="975.55" y="-749.3" font-family="Sans-Serif" font-size="13.00" fill="#2d3436">Poll state</text>
</g>
<!-- 4d64e089abb44ea9a77caee2c281477f -->
<g id="node17" class="node">
<title>4d64e089abb44ea9a77caee2c281477f</title>
<path fill="none" stroke="black" d="M1184.35,-754.39C1184.35,-759.44 1161.76,-763.55 1133.95,-763.55 1106.14,-763.55 1083.55,-759.44 1083.55,-754.39 1083.55,-754.39 1083.55,-671.91 1083.55,-671.91 1083.55,-666.86 1106.14,-662.75 1133.95,-662.75 1161.76,-662.75 1184.35,-666.86 1184.35,-671.91 1184.35,-671.91 1184.35,-754.39 1184.35,-754.39"/>
<path fill="none" stroke="black" d="M1184.35,-754.39C1184.35,-749.33 1161.76,-745.22 1133.95,-745.22 1106.14,-745.22 1083.55,-749.33 1083.55,-754.39"/>
<text xml:space="preserve" text-anchor="middle" x="1133.95" y="-714.3" font-family="Sans-Serif" font-size="13.00" fill="#2d3436">TaskApprovalsTable</text>
<text xml:space="preserve" text-anchor="middle" x="1133.95" y="-700.8" font-family="Sans-Serif" font-size="13.00" fill="#2d3436">(DynamoDB)</text>
</g>
<!-- 8847ce50a1cf43a58cdd87fbec74b1fa&#45;&gt;4d64e089abb44ea9a77caee2c281477f -->
<g id="edge20" class="edge">
<title>8847ce50a1cf43a58cdd87fbec74b1fa&#45;&gt;4d64e089abb44ea9a77caee2c281477f</title>
<path fill="none" stroke="#7b8894" d="M834.95,-585.35C920.31,-585.35 1052.35,-585.35 1052.35,-585.35 1052.35,-585.35 1052.35,-695.95 1052.35,-695.95 1052.35,-695.95 1071.69,-695.95 1071.69,-695.95"/>
<polygon fill="#7b8894" stroke="#7b8894" points="1071.69,-699.45 1081.69,-695.95 1071.69,-692.45 1071.69,-699.45"/>
<text xml:space="preserve" text-anchor="middle" x="975.55" y="-680.3" font-family="Sans-Serif" font-size="13.00" fill="#2d3436">Read approvals</text>
</g>
<!-- be57ab7134434c25a24b7b5c88babd8d -->
<g id="node21" class="node">
<title>be57ab7134434c25a24b7b5c88babd8d</title>
<ellipse fill="none" stroke="black" cx="764.05" cy="-1420.15" rx="72" ry="36"/>
<text xml:space="preserve" text-anchor="middle" x="764.05" y="-1421.3" font-family="Sans-Serif" font-size="13.00" fill="#2d3436">Agent Runtime</text>
<text xml:space="preserve" text-anchor="middle" x="764.05" y="-1407.8" font-family="Sans-Serif" font-size="13.00" fill="#2d3436">(MicroVM)</text>
</g>
<!-- 8847ce50a1cf43a58cdd87fbec74b1fa&#45;&gt;be57ab7134434c25a24b7b5c88babd8d -->
<g id="edge5" class="edge">
<title>8847ce50a1cf43a58cdd87fbec74b1fa&#45;&gt;be57ab7134434c25a24b7b5c88babd8d</title>
<path fill="none" stroke="#7b8894" d="M695.76,-566.15C639.99,-566.15 570.35,-566.15 570.35,-566.15 570.35,-566.15 570.35,-1420.15 570.35,-1420.15 570.35,-1420.15 680.13,-1420.15 680.13,-1420.15"/>
<polygon fill="#7b8894" stroke="#7b8894" points="680.13,-1423.65 690.13,-1420.15 680.13,-1416.65 680.13,-1423.65"/>
<text xml:space="preserve" text-anchor="middle" x="558.8" y="-1033.3" font-family="Sans-Serif" font-size="13.00" fill="#2d3436">DF&#45;05: Invoke AgentCore</text>
<text xml:space="preserve" text-anchor="middle" x="558.8" y="-1019.8" font-family="Sans-Serif" font-size="13.00" fill="#2d3436">(context, token, policies)</text>
</g>
<!-- c34b8aee4eeb48f8bfb2ca3d015e1e41 -->
<g id="node12" class="node">
<title>c34b8aee4eeb48f8bfb2ca3d015e1e41</title>
<ellipse fill="none" stroke="black" cx="764.05" cy="-463.15" rx="72" ry="36"/>
<text xml:space="preserve" text-anchor="middle" x="764.05" y="-457.55" font-family="Sans-Serif" font-size="13.00" fill="#2d3436">Cedar Policy Engine</text>
</g>
<!-- 1900349bf06d481aa610f745c1ab3b0f -->
<g id="node13" class="node">
<title>1900349bf06d481aa610f745c1ab3b0f</title>
<ellipse fill="none" stroke="black" cx="764.05" cy="-348.15" rx="72" ry="36"/>
<text xml:space="preserve" text-anchor="middle" x="764.05" y="-342.55" font-family="Sans-Serif" font-size="13.00" fill="#2d3436">Fan&#45;out Consumer</text>
</g>
<!-- 1900349bf06d481aa610f745c1ab3b0f&#45;&gt;01aa4374c4d94696921c075203b06625 -->
<g id="edge12" class="edge">
<title>1900349bf06d481aa610f745c1ab3b0f&#45;&gt;01aa4374c4d94696921c075203b06625</title>
<path fill="none" stroke="#7b8894" d="M801.55,-317C801.55,-317 1071.62,-317 1071.62,-317"/>
<polygon fill="#7b8894" stroke="#7b8894" points="1071.62,-320.5 1081.62,-317 1071.62,-313.5 1071.62,-320.5"/>
<text xml:space="preserve" text-anchor="middle" x="975.55" y="-295.8" font-family="Sans-Serif" font-size="13.00" fill="#2d3436">DF&#45;11b: Post notifications</text>
<text xml:space="preserve" text-anchor="middle" x="975.55" y="-282.3" font-family="Sans-Serif" font-size="13.00" fill="#2d3436">(status updates)</text>
</g>
<!-- 1900349bf06d481aa610f745c1ab3b0f&#45;&gt;be01febf3fe6424e904addc859ae41e5 -->
<g id="edge11" class="edge">
<title>1900349bf06d481aa610f745c1ab3b0f&#45;&gt;be01febf3fe6424e904addc859ae41e5</title>
<path fill="none" stroke="#7b8894" d="M764.35,-311.99C764.35,-261.94 764.35,-177.65 764.35,-177.65 764.35,-177.65 1071.82,-177.65 1071.82,-177.65"/>
<polygon fill="#7b8894" stroke="#7b8894" points="1071.82,-181.15 1081.82,-177.65 1071.82,-174.15 1071.82,-181.15"/>
<text xml:space="preserve" text-anchor="middle" x="975.55" y="-220.8" font-family="Sans-Serif" font-size="13.00" fill="#2d3436">DF&#45;11a: Post notifications</text>
<text xml:space="preserve" text-anchor="middle" x="975.55" y="-207.3" font-family="Sans-Serif" font-size="13.00" fill="#2d3436">(events, PR URLs)</text>
</g>
<!-- 09f075f9853d4d008fc58a83ed42c002 -->
<g id="node14" class="node">
<title>09f075f9853d4d008fc58a83ed42c002</title>
<ellipse fill="none" stroke="black" cx="764.05" cy="-693.15" rx="72" ry="36"/>
<text xml:space="preserve" text-anchor="middle" x="764.05" y="-687.55" font-family="Sans-Serif" font-size="13.00" fill="#2d3436">Reconcilers</text>
</g>
<!-- 519ccb93612d44a59bfcf2196baecd4a -->
<g id="node16" class="node">
<title>519ccb93612d44a59bfcf2196baecd4a</title>
<path fill="none" stroke="black" d="M1184.35,-610.39C1184.35,-615.44 1161.76,-619.55 1133.95,-619.55 1106.14,-619.55 1083.55,-615.44 1083.55,-610.39 1083.55,-610.39 1083.55,-527.91 1083.55,-527.91 1083.55,-522.86 1106.14,-518.75 1133.95,-518.75 1161.76,-518.75 1184.35,-522.86 1184.35,-527.91 1184.35,-527.91 1184.35,-610.39 1184.35,-610.39"/>
<path fill="none" stroke="black" d="M1184.35,-610.39C1184.35,-605.33 1161.76,-601.22 1133.95,-601.22 1106.14,-601.22 1083.55,-605.33 1083.55,-610.39"/>
<text xml:space="preserve" text-anchor="middle" x="1133.95" y="-570.3" font-family="Sans-Serif" font-size="13.00" fill="#2d3436">TaskEventsTable</text>
<text xml:space="preserve" text-anchor="middle" x="1133.95" y="-556.8" font-family="Sans-Serif" font-size="13.00" fill="#2d3436">(DynamoDB + Streams)</text>
</g>
<!-- 519ccb93612d44a59bfcf2196baecd4a&#45;&gt;1900349bf06d481aa610f745c1ab3b0f -->
<g id="edge18" class="edge">
<title>519ccb93612d44a59bfcf2196baecd4a&#45;&gt;1900349bf06d481aa610f745c1ab3b0f</title>
<path fill="none" stroke="#7b8894" d="M1083.45,-525.75C1031.88,-525.75 959.35,-525.75 959.35,-525.75 959.35,-525.75 959.35,-379.45 959.35,-379.45 959.35,-379.45 812.76,-379.45 812.76,-379.45"/>
<polygon fill="#7b8894" stroke="#7b8894" points="812.76,-375.95 802.76,-379.45 812.76,-382.95 812.76,-375.95"/>
<text xml:space="preserve" text-anchor="middle" x="975.55" y="-582.3" font-family="Sans-Serif" font-size="13.00" fill="#2d3436">DDB Stream</text>
</g>
<!-- d7a893ec7ae54813bd2a4a8d979760be -->
<g id="node18" class="node">
<title>d7a893ec7ae54813bd2a4a8d979760be</title>
<path fill="none" stroke="black" d="M1184.35,-1042.39C1184.35,-1047.44 1161.76,-1051.55 1133.95,-1051.55 1106.14,-1051.55 1083.55,-1047.44 1083.55,-1042.39 1083.55,-1042.39 1083.55,-959.91 1083.55,-959.91 1083.55,-954.86 1106.14,-950.75 1133.95,-950.75 1161.76,-950.75 1184.35,-954.86 1184.35,-959.91 1184.35,-959.91 1184.35,-1042.39 1184.35,-1042.39"/>
<path fill="none" stroke="black" d="M1184.35,-1042.39C1184.35,-1037.33 1161.76,-1033.22 1133.95,-1033.22 1106.14,-1033.22 1083.55,-1037.33 1083.55,-1042.39"/>
<text xml:space="preserve" text-anchor="middle" x="1133.95" y="-995.55" font-family="Sans-Serif" font-size="13.00" fill="#2d3436">Secrets Manager</text>
</g>
<!-- 2124b4e159344dfe8ecd6668af983d1d -->
<g id="node19" class="node">
<title>2124b4e159344dfe8ecd6668af983d1d</title>
<path fill="none" stroke="black" d="M1184.35,-1330.39C1184.35,-1335.44 1161.76,-1339.55 1133.95,-1339.55 1106.14,-1339.55 1083.55,-1335.44 1083.55,-1330.39 1083.55,-1330.39 1083.55,-1247.91 1083.55,-1247.91 1083.55,-1242.86 1106.14,-1238.75 1133.95,-1238.75 1161.76,-1238.75 1184.35,-1242.86 1184.35,-1247.91 1184.35,-1247.91 1184.35,-1330.39 1184.35,-1330.39"/>
<path fill="none" stroke="black" d="M1184.35,-1330.39C1184.35,-1325.33 1161.76,-1321.22 1133.95,-1321.22 1106.14,-1321.22 1083.55,-1325.33 1083.55,-1330.39"/>
<text xml:space="preserve" text-anchor="middle" x="1133.95" y="-1290.3" font-family="Sans-Serif" font-size="13.00" fill="#2d3436">AttachmentsBucket</text>
<text xml:space="preserve" text-anchor="middle" x="1133.95" y="-1276.8" font-family="Sans-Serif" font-size="13.00" fill="#2d3436">(S3)</text>
</g>
<!-- 2124b4e159344dfe8ecd6668af983d1d&#45;&gt;be57ab7134434c25a24b7b5c88babd8d -->
<g id="edge16" class="edge">
<title>2124b4e159344dfe8ecd6668af983d1d&#45;&gt;be57ab7134434c25a24b7b5c88babd8d</title>
<path fill="none" stroke="#7b8894" d="M1083.28,-1289.15C989.96,-1289.15 800.35,-1289.15 800.35,-1289.15 800.35,-1289.15 800.35,-1377.26 800.35,-1377.26"/>
<polygon fill="#7b8894" stroke="#7b8894" points="796.85,-1377.26 800.35,-1387.26 803.85,-1377.26 796.85,-1377.26"/>
<text xml:space="preserve" text-anchor="middle" x="975.55" y="-1336.8" font-family="Sans-Serif" font-size="13.00" fill="#2d3436">DF&#45;15: Download files</text>
<text xml:space="preserve" text-anchor="middle" x="975.55" y="-1323.3" font-family="Sans-Serif" font-size="13.00" fill="#2d3436">(integrity&#45;verified)</text>
</g>
<!-- c1deb4607b1748329d47921b92ff76d1 -->
<g id="node20" class="node">
<title>c1deb4607b1748329d47921b92ff76d1</title>
<path fill="none" stroke="black" d="M1184.35,-1186.39C1184.35,-1191.44 1161.76,-1195.55 1133.95,-1195.55 1106.14,-1195.55 1083.55,-1191.44 1083.55,-1186.39 1083.55,-1186.39 1083.55,-1103.91 1083.55,-1103.91 1083.55,-1098.86 1106.14,-1094.75 1133.95,-1094.75 1161.76,-1094.75 1184.35,-1098.86 1184.35,-1103.91 1184.35,-1103.91 1184.35,-1186.39 1184.35,-1186.39"/>
<path fill="none" stroke="black" d="M1184.35,-1186.39C1184.35,-1181.33 1161.76,-1177.22 1133.95,-1177.22 1106.14,-1177.22 1083.55,-1181.33 1083.55,-1186.39"/>
<text xml:space="preserve" text-anchor="middle" x="1133.95" y="-1146.3" font-family="Sans-Serif" font-size="13.00" fill="#2d3436">TraceArtifactsBucket</text>
<text xml:space="preserve" text-anchor="middle" x="1133.95" y="-1132.8" font-family="Sans-Serif" font-size="13.00" fill="#2d3436">(S3)</text>
</g>
<!-- be57ab7134434c25a24b7b5c88babd8d&#45;&gt;01aa4374c4d94696921c075203b06625 -->
<g id="edge6" class="edge">
<title>be57ab7134434c25a24b7b5c88babd8d&#45;&gt;01aa4374c4d94696921c075203b06625</title>
<path fill="none" stroke="#7b8894" d="M826.87,-1402.15C861.83,-1402.15 898.35,-1402.15 898.35,-1402.15 898.35,-1402.15 898.35,-326.7 898.35,-326.7 898.35,-326.7 1071.6,-326.7 1071.6,-326.7"/>
<polygon fill="#7b8894" stroke="#7b8894" points="1071.6,-330.2 1081.6,-326.7 1071.6,-323.2 1071.6,-330.2"/>
<text xml:space="preserve" text-anchor="middle" x="975.55" y="-520.8" font-family="Sans-Serif" font-size="13.00" fill="#2d3436">DF&#45;06: Git clone/push</text>
<text xml:space="preserve" text-anchor="middle" x="975.55" y="-507.3" font-family="Sans-Serif" font-size="13.00" fill="#2d3436">(GitHub PAT)</text>
</g>
<!-- be57ab7134434c25a24b7b5c88babd8d&#45;&gt;ddb2cbd2730a48bcb78dfa0e5f90fa23 -->
<g id="edge7" class="edge">
<title>be57ab7134434c25a24b7b5c88babd8d&#45;&gt;ddb2cbd2730a48bcb78dfa0e5f90fa23</title>
<path fill="none" stroke="#7b8894" d="M836.41,-1420.15C912.51,-1420.15 1021.35,-1420.15 1021.35,-1420.15 1021.35,-1420.15 1021.35,-459.42 1021.35,-459.42 1021.35,-459.42 1071.74,-459.42 1071.74,-459.42"/>
<polygon fill="#7b8894" stroke="#7b8894" points="1071.74,-462.92 1081.74,-459.42 1071.74,-455.92 1071.74,-462.92"/>
<text xml:space="preserve" text-anchor="middle" x="975.55" y="-828.8" font-family="Sans-Serif" font-size="13.00" fill="#2d3436">DF&#45;07: LLM inference</text>
<text xml:space="preserve" text-anchor="middle" x="975.55" y="-815.3" font-family="Sans-Serif" font-size="13.00" fill="#2d3436">(prompts, code context)</text>
</g>
<!-- be57ab7134434c25a24b7b5c88babd8d&#45;&gt;eb191e48441246de960c483a9a6bbd35 -->
<g id="edge9" class="edge">
<title>be57ab7134434c25a24b7b5c88babd8d&#45;&gt;eb191e48441246de960c483a9a6bbd35</title>
<path fill="none" stroke="#7b8894" d="M728.35,-1388.55C728.35,-1272.47 728.35,-876.22 728.35,-876.22 728.35,-876.22 1071.89,-876.22 1071.89,-876.22"/>
<polygon fill="#7b8894" stroke="#7b8894" points="1071.89,-879.72 1081.89,-876.22 1071.89,-872.72 1071.89,-879.72"/>
<text xml:space="preserve" text-anchor="middle" x="975.55" y="-905.8" font-family="Sans-Serif" font-size="13.00" fill="#2d3436">DF&#45;09: Write task state</text>
<text xml:space="preserve" text-anchor="middle" x="975.55" y="-892.3" font-family="Sans-Serif" font-size="13.00" fill="#2d3436">(status, results, heartbeat)</text>
</g>
<!-- be57ab7134434c25a24b7b5c88babd8d&#45;&gt;c1deb4607b1748329d47921b92ff76d1 -->
<g id="edge15" class="edge">
<title>be57ab7134434c25a24b7b5c88babd8d&#45;&gt;c1deb4607b1748329d47921b92ff76d1</title>
<path fill="none" stroke="#7b8894" d="M764.35,-1383.92C764.35,-1309.24 764.35,-1145.15 764.35,-1145.15 764.35,-1145.15 1071.82,-1145.15 1071.82,-1145.15"/>
<polygon fill="#7b8894" stroke="#7b8894" points="1071.82,-1148.65 1081.82,-1145.15 1071.82,-1141.65 1071.82,-1148.65"/>
<text xml:space="preserve" text-anchor="middle" x="975.55" y="-1210.8" font-family="Sans-Serif" font-size="13.00" fill="#2d3436">DF&#45;14: Upload traces</text>
<text xml:space="preserve" text-anchor="middle" x="975.55" y="-1197.3" font-family="Sans-Serif" font-size="13.00" fill="#2d3436">(trajectory JSONL)</text>
</g>
<!-- 39cd8deb13ea4758a420740ed744f2f1 -->
<g id="node22" class="node">
<title>39cd8deb13ea4758a420740ed744f2f1</title>
<path fill="none" stroke="black" d="M1184.35,-1475.39C1184.35,-1480.44 1161.76,-1484.55 1133.95,-1484.55 1106.14,-1484.55 1083.55,-1480.44 1083.55,-1475.39 1083.55,-1475.39 1083.55,-1392.91 1083.55,-1392.91 1083.55,-1387.86 1106.14,-1383.75 1133.95,-1383.75 1161.76,-1383.75 1184.35,-1387.86 1184.35,-1392.91 1184.35,-1392.91 1184.35,-1475.39 1184.35,-1475.39"/>
<path fill="none" stroke="black" d="M1184.35,-1475.39C1184.35,-1470.33 1161.76,-1466.22 1133.95,-1466.22 1106.14,-1466.22 1083.55,-1470.33 1083.55,-1475.39"/>
<text xml:space="preserve" text-anchor="middle" x="1133.95" y="-1428.55" font-family="Sans-Serif" font-size="13.00" fill="#2d3436">AgentCore Memory</text>
</g>
<!-- be57ab7134434c25a24b7b5c88babd8d&#45;&gt;39cd8deb13ea4758a420740ed744f2f1 -->
<g id="edge10" class="edge">
<title>be57ab7134434c25a24b7b5c88babd8d&#45;&gt;39cd8deb13ea4758a420740ed744f2f1</title>
<path fill="none" stroke="#7b8894" d="M826.8,-1438.15C826.8,-1438.15 1071.6,-1438.15 1071.6,-1438.15"/>
<polygon fill="#7b8894" stroke="#7b8894" points="1071.6,-1441.65 1081.6,-1438.15 1071.6,-1434.65 1071.6,-1441.65"/>
<text xml:space="preserve" text-anchor="middle" x="975.55" y="-1444.8" font-family="Sans-Serif" font-size="13.00" fill="#2d3436">DF&#45;10: Write memory</text>
<text xml:space="preserve" text-anchor="middle" x="975.55" y="-1431.3" font-family="Sans-Serif" font-size="13.00" fill="#2d3436">(outcomes, learnings)</text>
</g>
</g>
</svg>
